<svg width="36" height="33" viewBox="0 0 36 33" fill="none" xmlns="http://www.w3.org/2000/svg">
<path d="M11.4759 24.9898C10.6052 24.9898 9.75705 24.9377 8.94256 24.8297C4.77274 24.2841 1.84807 22.3998 0.707784 19.5194C-1.51849 13.8962 4.10056 6.60664 13.5037 2.92367C22.9068 -0.759303 32.016 0.761923 34.2442 6.38506C36.4704 12.0082 30.8514 19.2978 21.4483 22.9808C18.0798 24.299 14.6253 24.988 11.4778 24.988L11.4759 24.9898ZM23.6502 4.76143C20.8809 4.76143 17.7166 5.3796 14.9099 6.47816C8.66919 8.92292 2.76741 14.3059 4.28031 18.121C4.8776 19.6274 6.75935 20.6943 9.44249 21.0443C12.5731 21.454 16.3348 20.8805 20.0402 19.43C26.2809 16.9852 32.1827 11.6023 30.6698 7.78712C29.8384 5.68682 27.0392 4.76143 23.6502 4.76143Z" fill="#84181F"/>
<path d="M19.4648 32.0352C18.9946 32.0352 18.5243 32.0259 18.056 32.0092C13.5981 31.844 9.40862 30.9644 6.25959 29.5281C2.65699 27.8858 0.722397 25.6273 0.81311 23.1685C0.903823 20.7097 2.99762 18.5997 6.7113 17.2283C9.9566 16.0295 14.1979 15.458 18.6576 15.6231C23.1155 15.7883 27.305 16.6679 30.454 18.1042C34.0566 19.7466 35.9912 22.005 35.9005 24.4638C35.7154 29.491 27.5401 32.0352 19.4648 32.0352ZM17.1414 18.8744C13.6277 18.8744 10.3676 19.3717 7.84429 20.3051C5.56165 21.1495 4.1195 22.2926 4.08248 23.2891C4.04545 24.2857 5.39874 25.5327 7.61473 26.5422C10.3843 27.8041 14.135 28.5817 18.1763 28.732C26.8903 29.0493 32.5589 26.3474 32.6311 24.3432C32.6682 23.3448 31.3149 22.0996 29.0989 21.0901C26.3294 19.8282 22.5787 19.0507 18.5373 18.9003C18.0689 18.8836 17.6024 18.8744 17.1414 18.8744Z" fill="#84181F"/>
</svg>
