<svg width="301" height="85" viewBox="0 0 301 85" fill="none" xmlns="http://www.w3.org/2000/svg">
<path d="M97.6058 69.7434V3.55286C98.0197 3.55286 98.388 3.55286 98.7605 3.55286C105.279 3.55286 111.797 3.53221 118.316 3.56111C122.852 3.58176 127.313 4.08546 131.489 6.01767C137.78 8.92837 141.016 13.9447 141.417 20.7735C141.732 26.1242 140.317 30.9052 136.252 34.6705C136.05 34.8604 135.839 35.038 135.627 35.2155C135.416 35.393 135.205 35.5664 134.911 35.81C135.627 36.3591 136.327 36.8463 136.968 37.3954C142.055 41.7512 143.499 47.3703 142.626 53.7697C141.508 61.9981 135.772 66.841 128.426 68.7071C125.347 69.4916 122.222 69.7517 119.056 69.7476C112.294 69.7393 105.535 69.7476 98.7729 69.7476H97.61L97.6058 69.7434ZM110.891 57.2708C113.316 57.2708 115.638 57.3286 117.951 57.2543C119.781 57.1965 121.626 57.1139 123.423 56.796C127.065 56.156 129.395 53.5674 129.655 50.1447C129.929 46.5569 128.087 43.7742 124.536 42.5191C123.696 42.2218 122.798 41.9452 121.916 41.9163C118.32 41.8007 114.715 41.7801 111.118 41.7305C111.061 41.7305 111.003 41.7925 110.891 41.8585V57.2708ZM110.899 30.5501C114.107 30.5501 117.252 30.6286 120.389 30.5088C121.606 30.4634 122.847 30.0877 124.006 29.6666C127.445 28.4115 129.155 24.9971 128.223 21.4547C127.321 18.0403 124.71 16.5705 121.564 16.2567C118.096 15.9099 114.578 16.0751 111.081 16.0255C111.027 16.0255 110.974 16.104 110.903 16.1576V30.5501H110.899Z" fill="#000000"/>
<path d="M213.77 61.8794V68.9836H201.073V67.8765C201.073 46.8334 201.078 25.7903 201.053 4.74717C201.053 3.80756 201.3 3.53385 202.261 3.54611C205.887 3.6033 209.517 3.56654 213.143 3.57063C213.482 3.57063 213.82 3.59922 214.282 3.61965V29.1524C214.356 29.177 214.43 29.2056 214.509 29.2301C214.859 28.7521 215.198 28.266 215.565 27.8002C218.349 24.2665 222.025 22.2402 226.509 21.8766C234.478 21.2312 241.28 23.6619 246.226 30.0716C251.057 36.3302 252.447 43.4794 250.855 51.1433C249.452 57.8881 246 63.3909 239.833 66.798C233.756 70.152 227.338 70.7689 220.812 68.0113C217.858 66.7653 215.73 64.5348 214.072 61.8385C213.968 61.8508 213.869 61.863 213.766 61.8753L213.77 61.8794ZM215.214 45.567C215.136 52.5242 220.041 57.6103 226.892 57.6797C233.484 57.7492 238.624 52.5854 238.694 45.8284C238.764 39.0306 233.744 33.8178 227.041 33.7361C220.243 33.6544 215.293 38.6057 215.214 45.567Z" fill="#000000"/>
<path d="M257.117 83.9943C258.351 81.3209 259.476 78.8814 260.606 76.4419C263.108 71.045 265.622 65.6564 268.086 60.2427C268.266 59.8501 268.233 59.2151 268.04 58.8183C262.242 46.7754 256.414 34.7534 250.59 22.7231C250.469 22.4766 250.372 22.2177 250.201 21.8125C250.623 21.7832 250.95 21.7415 251.276 21.7415C255.481 21.7373 259.69 21.754 263.894 21.7247C264.626 21.7206 265.003 21.942 265.329 22.6187C268.559 29.3356 271.831 36.0317 275.09 42.7319C275.236 43.0327 275.408 43.3251 275.655 43.7887C276.68 41.5915 277.625 39.5739 278.562 37.5522C280.843 32.6314 283.135 27.719 285.382 22.7816C285.733 22.0046 286.152 21.708 287.03 21.7164C291.168 21.7665 295.302 21.7373 299.439 21.7415C299.778 21.7415 300.117 21.7707 300.632 21.7958C299.607 24.0139 298.649 26.0941 297.686 28.1743C289.223 46.4287 280.755 64.6789 272.312 82.9375C271.96 83.6935 271.576 84.0361 270.68 84.0236C266.58 83.9692 262.48 83.9985 258.376 83.9985C258.037 83.9985 257.694 83.9985 257.125 83.9985L257.117 83.9943Z" fill="#000000"/>
<path d="M176.482 69.7476V3.54572H190.706V69.7476H176.482Z" fill="#000000"/>
<path d="M166.076 69.7408H151.927V21.796C152.252 21.7751 152.573 21.7331 152.898 21.7331C156.923 21.7289 160.952 21.7457 164.976 21.7163C165.795 21.7121 166.152 21.8464 166.152 22.7444C166.12 38.1021 166.129 53.4599 166.129 68.8177C166.129 69.0946 166.098 69.3674 166.076 69.745V69.7408Z" fill="#000000"/>
<path d="M158.902 16.508C154.119 16.4667 150.588 13.0866 150.624 8.58393C150.655 4.1803 154.36 0.874485 159.196 0.932264C163.893 0.985917 167.478 4.41141 167.433 8.80679C167.389 13.2228 163.702 16.5534 158.902 16.508Z" fill="#000000"/>
<path d="M25.5049 56.7669C23.58 56.7669 21.7047 56.6516 19.904 56.4128C10.6852 55.2067 4.21923 51.0408 1.69824 44.6725C-3.2237 32.2407 9.19912 16.1245 29.988 7.98202C50.7769 -0.160445 70.9159 3.20275 75.8419 15.6346C80.7639 28.0665 68.341 44.1827 47.5522 52.3251C40.1051 55.2396 32.4676 56.7627 25.509 56.7627L25.5049 56.7669ZM52.4203 12.045C46.2979 12.045 39.302 13.4117 33.0968 15.8404C19.2997 21.2454 6.25175 33.1463 9.59652 41.581C10.917 44.9113 15.0773 47.2701 21.0093 48.044C27.9306 48.9496 36.247 47.6817 44.4392 44.4749C58.2364 39.0699 71.2843 27.1691 67.9395 18.7344C66.1015 14.0909 59.9129 12.045 52.4203 12.045Z" fill="#84181F"/>
<path d="M43.1697 72.3431C42.1301 72.3431 41.0905 72.3226 40.055 72.2857C30.1993 71.9205 20.9371 69.9759 13.9751 66.8004C6.01028 63.1695 1.7332 58.1765 1.93375 52.7404C2.1343 47.3043 6.76337 42.6395 14.9737 39.6076C22.1486 36.9572 31.5254 35.6936 41.3852 36.0587C51.2409 36.4239 60.5031 38.3686 67.4651 41.5441C75.4299 45.175 79.707 50.168 79.5065 55.6041C79.0972 66.7183 61.0229 72.3431 43.1697 72.3431ZM38.0331 43.2467C30.2648 43.2467 23.0572 44.3462 17.4786 46.4099C12.432 48.2766 9.24366 50.8039 9.16181 53.007C9.07995 55.2102 12.0719 57.9672 16.9711 60.1991C23.094 62.9889 31.3862 64.708 40.321 65.0403C59.5863 65.7419 72.1188 59.7683 72.2784 55.3374C72.3603 53.1301 69.3683 50.3772 64.4692 48.1453C58.3462 45.3555 50.054 43.6364 41.1192 43.3041C40.0837 43.2672 39.0522 43.2467 38.0331 43.2467Z" fill="#84181F"/>
</svg>
